{"accessors":[{"bufferView":0,"componentType":5125,"count":1644,"max":[627.0],"min":[0.0],"type":"SCALAR"},{"bufferView":1,"componentType":5126,"count":628,"max":[9.436578750610352,48.193973541259769,90.11102294921875],"min":[-9.436578750610352,38.711212158203128,76.98638916015625],"type":"VEC3"},{"bufferView":2,"componentType":5126,"count":628,"max":[0.9990659356117249,0.9702957272529602,0.9998477101325989],"min":[-0.9990659356117249,-0.9998477101325989,-0.9702957272529602],"type":"VEC3"},{"bufferView":3,"componentType":5125,"count":168,"max":[61.0],"min":[0.0],"type":"SCALAR"},{"bufferView":4,"componentType":5126,"count":62,"max":[5.247086048126221,40.252777099609378,85.71448516845703],"min":[-5.247086048126221,39.469181060791019,82.5716552734375],"type":"VEC3"},{"bufferView":5,"componentType":5126,"count":62,"max":[-1.9226170677212607e-14,-0.9702957272529602,0.24192190170288087],"min":[-1.9226170677212607e-14,-0.9702957272529602,0.24192190170288087],"type":"VEC3"},{"bufferView":6,"componentType":5125,"count":8220,"max":[3216.0],"min":[0.0],"type":"SCALAR"},{"bufferView":7,"componentType":5126,"count":3217,"max":[26.0,65.6500015258789,89.83954620361328],"min":[-26.0,15.649999618530274,-25.149999618530275],"type":"VEC3"},{"bufferView":8,"componentType":5126,"count":3217,"max":[1.0,1.0,1.0],"min":[-1.0,-1.0,-1.0],"type":"VEC3"},{"bufferView":9,"componentType":5125,"count":708,"max":[311.0],"min":[0.0],"type":"SCALAR"},{"bufferView":10,"componentType":5126,"count":312,"max":[22.5,63.150001525878909,36.04999923706055],"min":[-22.5,23.149999618530275,34.849998474121097],"type":"VEC3"},{"bufferView":11,"componentType":5126,"count":312,"max":[1.0,1.0,1.0],"min":[-1.0,-1.0,-1.0],"type":"VEC3"},{"bufferView":12,"componentType":5125,"count":708,"max":[311.0],"min":[0.0],"type":"SCALAR"},{"bufferView":13,"componentType":5126,"count":312,"max":[22.5,63.150001525878909,56.04999923706055],"min":[-22.5,23.149999618530275,54.849998474121097],"type":"VEC3"},{"bufferView":14,"componentType":5126,"count":312,"max":[1.0,1.0,1.0],"min":[-1.0,-1.0,-1.0],"type":"VEC3"},{"bufferView":15,"componentType":5125,"count":1620,"max":[675.0],"min":[0.0],"type":"SCALAR"},{"bufferView":16,"componentType":5126,"count":676,"max":[25.0,65.6500015258789,-5.150000095367432],"min":[-25.0,15.649999618530274,-25.149999618530275],"type":"VEC3"},{"bufferView":17,"componentType":5126,"count":676,"max":[1.0,1.0,1.0],"min":[-1.0,-1.0,-1.0],"type":"VEC3"},{"bufferView":18,"componentType":5125,"count":6264,"max":[1803.0],"min":[0.0],"type":"SCALAR"},{"bufferView":19,"componentType":5126,"count":1804,"max":[15.0,48.08303451538086,-12.719599723815918],"min":[10.0,33.227500915527347,-27.580400466918947],"type":"VEC3"},{"bufferView":20,"componentType":5126,"count":1804,"max":[1.0,1.0,0.9996455907821655],"min":[-1.0,-0.9985827207565308,-0.9996455907821655],"type":"VEC3"},{"bufferView":21,"componentType":5125,"count":6264,"max":[1803.0],"min":[0.0],"type":"SCALAR"},{"bufferView":22,"componentType":5126,"count":1804,"max":[-10.0,48.08303451538086,-12.719599723815918],"min":[-15.0,33.227500915527347,-27.580400466918947],"type":"VEC3"},{"bufferView":23,"componentType":5126,"count":1804,"max":[1.0,1.0,0.9996455907821655],"min":[-1.0,-0.9985827207565308,-0.9996455907821655],"type":"VEC3"},{"bufferView":24,"componentType":5125,"count":5664,"max":[1689.0],"min":[0.0],"type":"SCALAR"},{"bufferView":25,"componentType":5126,"count":1690,"max":[1.850000023841858,48.01349639892578,90.83954620361328],"min":[-1.850000023841858,44.31349563598633,89.83954620361328],"type":"VEC3"},{"bufferView":26,"componentType":5126,"count":1690,"max":[1.0,1.0,1.0],"min":[-1.0,-1.0,-1.0],"type":"VEC3"},{"bufferView":27,"componentType":5125,"count":36,"max":[23.0],"min":[0.0],"type":"SCALAR"},{"bufferView":28,"componentType":5126,"count":24,"max":[-21.0,60.650001525878909,54.849998474121097],"min":[-22.0,25.649999618530275,54.150001525878909],"type":"VEC3"},{"bufferView":29,"componentType":5126,"count":24,"max":[1.0,0.26962992548942568,1.0],"min":[-1.0,-0.26962992548942568,-1.0],"type":"VEC3"},{"bufferView":30,"componentType":5125,"count":36,"max":[23.0],"min":[0.0],"type":"SCALAR"},{"bufferView":31,"componentType":5126,"count":24,"max":[-21.0,60.650001525878909,34.849998474121097],"min":[-22.0,25.649999618530275,34.150001525878909],"type":"VEC3"},{"bufferView":32,"componentType":5126,"count":24,"max":[1.0,0.26962992548942568,1.0],"min":[-1.0,-0.26962992548942568,-1.0],"type":"VEC3"},{"bufferView":33,"componentType":5125,"count":36,"max":[23.0],"min":[0.0],"type":"SCALAR"},{"bufferView":34,"componentType":5126,"count":24,"max":[-21.0,60.650001525878909,14.850000381469727],"min":[-22.0,25.649999618530275,14.149999618530274],"type":"VEC3"},{"bufferView":35,"componentType":5126,"count":24,"max":[1.0,0.26962992548942568,1.0],"min":[-1.0,-0.26962992548942568,-1.0],"type":"VEC3"},{"bufferView":36,"componentType":5125,"count":36,"max":[23.0],"min":[0.0],"type":"SCALAR"},{"bufferView":37,"componentType":5126,"count":24,"max":[22.0,60.650001525878909,54.849998474121097],"min":[21.0,25.649999618530275,54.150001525878909],"type":"VEC3"},{"bufferView":38,"componentType":5126,"count":24,"max":[1.0,0.26962992548942568,1.0],"min":[-1.0,-0.26962992548942568,-1.0],"type":"VEC3"},{"bufferView":39,"componentType":5125,"count":36,"max":[23.0],"min":[0.0],"type":"SCALAR"},{"bufferView":40,"componentType":5126,"count":24,"max":[22.0,60.650001525878909,34.849998474121097],"min":[21.0,25.649999618530275,34.150001525878909],"type":"VEC3"},{"bufferView":41,"componentType":5126,"count":24,"max":[1.0,0.26962992548942568,1.0],"min":[-1.0,-0.26962992548942568,-1.0],"type":"VEC3"},{"bufferView":42,"componentType":5125,"count":36,"max":[23.0],"min":[0.0],"type":"SCALAR"},{"bufferView":43,"componentType":5126,"count":24,"max":[22.0,60.650001525878909,14.850000381469727],"min":[21.0,25.649999618530275,14.149999618530274],"type":"VEC3"},{"bufferView":44,"componentType":5126,"count":24,"max":[1.0,0.26962992548942568,1.0],"min":[-1.0,-0.26962992548942568,-1.0],"type":"VEC3"},{"bufferView":45,"componentType":5125,"count":180,"max":[85.0],"min":[0.0],"type":"SCALAR"},{"bufferView":46,"componentType":5126,"count":86,"max":[22.5,38.95000076293945,54.150001525878909],"min":[21.0,35.75,52.75],"type":"VEC3"},{"bufferView":47,"componentType":5126,"count":86,"max":[1.0,1.0,1.0],"min":[-1.0,-1.0,-1.0],"type":"VEC3"},{"bufferView":48,"componentType":5125,"count":180,"max":[85.0],"min":[0.0],"type":"SCALAR"},{"bufferView":49,"componentType":5126,"count":86,"max":[-21.0,38.95000076293945,54.150001525878909],"min":[-22.5,35.75,52.75],"type":"VEC3"},{"bufferView":50,"componentType":5126,"count":86,"max":[1.0,1.0,1.0],"min":[-1.0,-1.0,-1.0],"type":"VEC3"},{"bufferView":51,"componentType":5125,"count":180,"max":[85.0],"min":[0.0],"type":"SCALAR"},{"bufferView":52,"componentType":5126,"count":86,"max":[-21.0,33.849998474121097,34.150001525878909],"min":[-22.5,30.649999618530275,32.75],"type":"VEC3"},{"bufferView":53,"componentType":5126,"count":86,"max":[1.0,1.0,1.0],"min":[-1.0,-1.0,-1.0],"type":"VEC3"},{"bufferView":54,"componentType":5125,"count":180,"max":[85.0],"min":[0.0],"type":"SCALAR"},{"bufferView":55,"componentType":5126,"count":86,"max":[-21.0,29.149999618530275,14.149999618530274],"min":[-22.5,26.649999618530275,12.75],"type":"VEC3"},{"bufferView":56,"componentType":5126,"count":86,"max":[1.0,1.0,1.0],"min":[-1.0,-1.0,-1.0],"type":"VEC3"},{"bufferView":57,"componentType":5125,"count":180,"max":[85.0],"min":[0.0],"type":"SCALAR"},{"bufferView":58,"componentType":5126,"count":86,"max":[22.5,33.849998474121097,34.150001525878909],"min":[21.0,30.649999618530275,32.75],"type":"VEC3"},{"bufferView":59,"componentType":5126,"count":86,"max":[1.0,1.0,1.0],"min":[-1.0,-1.0,-1.0],"type":"VEC3"},{"bufferView":60,"componentType":5125,"count":180,"max":[85.0],"min":[0.0],"type":"SCALAR"},{"bufferView":61,"componentType":5126,"count":86,"max":[22.5,29.149999618530275,14.149999618530274],"min":[21.0,26.649999618530275,12.75],"type":"VEC3"},{"bufferView":62,"componentType":5126,"count":86,"max":[1.0,1.0,1.0],"min":[-1.0,-1.0,-1.0],"type":"VEC3"},{"bufferView":63,"componentType":5125,"count":708,"max":[311.0],"min":[0.0],"type":"SCALAR"},{"bufferView":64,"componentType":5126,"count":312,"max":[22.5,63.150001525878909,16.049999237060548],"min":[-22.5,23.149999618530275,14.850000381469727],"type":"VEC3"},{"bufferView":65,"componentType":5126,"count":312,"max":[1.0,1.0,1.0],"min":[-1.0,-1.0,-1.0],"type":"VEC3"}],"asset":{"generator":"SimLab GLTF","version":"2.0"},"bufferViews":[{"buffer":0,"byteLength":6576,"target":34963},{"buffer":0,"byteLength":7536,"byteOffset":6576,"byteStride":12,"target":34962},{"buffer":0,"byteLength":7536,"byteOffset":14112,"byteStride":12,"target":34962},{"buffer":0,"byteLength":672,"byteOffset":21648,"target":34963},{"buffer":0,"byteLength":744,"byteOffset":22320,"byteStride":12,"target":34962},{"buffer":0,"byteLength":744,"byteOffset":23064,"byteStride":12,"target":34962},{"buffer":0,"byteLength":32880,"byteOffset":23808,"target":34963},{"buffer":0,"byteLength":38604,"byteOffset":56688,"byteStride":12,"target":34962},{"buffer":0,"byteLength":38604,"byteOffset":95292,"byteStride":12,"target":34962},{"buffer":0,"byteLength":2832,"byteOffset":133896,"target":34963},{"buffer":0,"byteLength":3744,"byteOffset":136728,"byteStride":12,"target":34962},{"buffer":0,"byteLength":3744,"byteOffset":140472,"byteStride":12,"target":34962},{"buffer":0,"byteLength":2832,"byteOffset":144216,"target":34963},{"buffer":0,"byteLength":3744,"byteOffset":147048,"byteStride":12,"target":34962},{"buffer":0,"byteLength":3744,"byteOffset":150792,"byteStride":12,"target":34962},{"buffer":0,"byteLength":6480,"byteOffset":154536,"target":34963},{"buffer":0,"byteLength":8112,"byteOffset":161016,"byteStride":12,"target":34962},{"buffer":0,"byteLength":8112,"byteOffset":169128,"byteStride":12,"target":34962},{"buffer":0,"byteLength":25056,"byteOffset":177240,"target":34963},{"buffer":0,"byteLength":21648,"byteOffset":202296,"byteStride":12,"target":34962},{"buffer":0,"byteLength":21648,"byteOffset":223944,"byteStride":12,"target":34962},{"buffer":0,"byteLength":25056,"byteOffset":245592,"target":34963},{"buffer":0,"byteLength":21648,"byteOffset":270648,"byteStride":12,"target":34962},{"buffer":0,"byteLength":21648,"byteOffset":292296,"byteStride":12,"target":34962},{"buffer":0,"byteLength":22656,"byteOffset":313944,"target":34963},{"buffer":0,"byteLength":20280,"byteOffset":336600,"byteStride":12,"target":34962},{"buffer":0,"byteLength":20280,"byteOffset":356880,"byteStride":12,"target":34962},{"buffer":0,"byteLength":144,"byteOffset":377160,"target":34963},{"buffer":0,"byteLength":288,"byteOffset":377304,"byteStride":12,"target":34962},{"buffer":0,"byteLength":288,"byteOffset":377592,"byteStride":12,"target":34962},{"buffer":0,"byteLength":144,"byteOffset":377880,"target":34963},{"buffer":0,"byteLength":288,"byteOffset":378024,"byteStride":12,"target":34962},{"buffer":0,"byteLength":288,"byteOffset":378312,"byteStride":12,"target":34962},{"buffer":0,"byteLength":144,"byteOffset":378600,"target":34963},{"buffer":0,"byteLength":288,"byteOffset":378744,"byteStride":12,"target":34962},{"buffer":0,"byteLength":288,"byteOffset":379032,"byteStride":12,"target":34962},{"buffer":0,"byteLength":144,"byteOffset":379320,"target":34963},{"buffer":0,"byteLength":288,"byteOffset":379464,"byteStride":12,"target":34962},{"buffer":0,"byteLength":288,"byteOffset":379752,"byteStride":12,"target":34962},{"buffer":0,"byteLength":144,"byteOffset":380040,"target":34963},{"buffer":0,"byteLength":288,"byteOffset":380184,"byteStride":12,"target":34962},{"buffer":0,"byteLength":288,"byteOffset":380472,"byteStride":12,"target":34962},{"buffer":0,"byteLength":144,"byteOffset":380760,"target":34963},{"buffer":0,"byteLength":288,"byteOffset":380904,"byteStride":12,"target":34962},{"buffer":0,"byteLength":288,"byteOffset":381192,"byteStride":12,"target":34962},{"buffer":0,"byteLength":720,"byteOffset":381480,"target":34963},{"buffer":0,"byteLength":1032,"byteOffset":382200,"byteStride":12,"target":34962},{"buffer":0,"byteLength":1032,"byteOffset":383232,"byteStride":12,"target":34962},{"buffer":0,"byteLength":720,"byteOffset":384264,"target":34963},{"buffer":0,"byteLength":1032,"byteOffset":384984,"byteStride":12,"target":34962},{"buffer":0,"byteLength":1032,"byteOffset":386016,"byteStride":12,"target":34962},{"buffer":0,"byteLength":720,"byteOffset":387048,"target":34963},{"buffer":0,"byteLength":1032,"byteOffset":387768,"byteStride":12,"target":34962},{"buffer":0,"byteLength":1032,"byteOffset":388800,"byteStride":12,"target":34962},{"buffer":0,"byteLength":720,"byteOffset":389832,"target":34963},{"buffer":0,"byteLength":1032,"byteOffset":390552,"byteStride":12,"target":34962},{"buffer":0,"byteLength":1032,"byteOffset":391584,"byteStride":12,"target":34962},{"buffer":0,"byteLength":720,"byteOffset":392616,"target":34963},{"buffer":0,"byteLength":1032,"byteOffset":393336,"byteStride":12,"target":34962},{"buffer":0,"byteLength":1032,"byteOffset":394368,"byteStride":12,"target":34962},{"buffer":0,"byteLength":720,"byteOffset":395400,"target":34963},{"buffer":0,"byteLength":1032,"byteOffset":396120,"byteStride":12,"target":34962},{"buffer":0,"byteLength":1032,"byteOffset":397152,"byteStride":12,"target":34962},{"buffer":0,"byteLength":2832,"byteOffset":398184,"target":34963},{"buffer":0,"byteLength":3744,"byteOffset":401016,"byteStride":12,"target":34962},{"buffer":0,"byteLength":3744,"byteOffset":404760,"byteStride":12,"target":34962}],"buffers":[{"byteLength":408504,"uri":"redlinear.bin"}],"extensionsUsed":["KHR_materials_pbrSpecularGlossiness"],"materials":[{"extensions":{"KHR_materials_pbrSpecularGlossiness":{"diffuseFactor":[0.24705882370471955,0.24705882370471955,0.24705882370471955,1.0],"specularFactor":[0.0,0.0,0.0],"glossinessFactor":0.5}},"name":"EPX 150 - Air Baked (with Carbon M2 M3 L1 3D Printers)","alphaMode":"MASK","doubleSided":true,"pbrMetallicRoughness":{"baseColorFactor":[0.24705882370471955,0.24705882370471955,0.24705882370471955,1.0],"metallicFactor":0.5}},{"extensions":{"KHR_materials_pbrSpecularGlossiness":{"diffuseFactor":[1.0,1.0,1.0,1.0],"specularFactor":[0.0,0.0,0.0],"glossinessFactor":0.5}},"name":"Opaque(255,255,255)","alphaMode":"MASK","doubleSided":true,"pbrMetallicRoughness":{"metallicFactor":0.5}},{"extensions":{"KHR_materials_pbrSpecularGlossiness":{"diffuseFactor":[0.8509804010391235,0.8274509906768799,0.7882353067398071,1.0],"specularFactor":[0.0,0.0,0.0],"glossinessFactor":0.5}},"name":"Aluminum nitride (AlN)","alphaMode":"MASK","doubleSided":true,"pbrMetallicRoughness":{"baseColorFactor":[0.8509804010391235,0.8274509906768799,0.7882353067398071,1.0],"metallicFactor":0.5}},{"extensions":{"KHR_materials_pbrSpecularGlossiness":{"diffuseFactor":[0.6274510025978088,0.6274510025978088,0.6274510025978088,1.0],"specularFactor":[0.0,0.0,0.0],"glossinessFactor":0.5}},"name":"Steel - Satin","alphaMode":"MASK","doubleSided":true,"pbrMetallicRoughness":{"baseColorFactor":[0.6274510025978088,0.6274510025978088,0.6274510025978088,1.0],"metallicFactor":0.5}}],"meshes":[{"primitives":[{"attributes":{"NORMAL":2,"POSITION":1},"indices":0,"material":0,"mode":4}]},{"primitives":[{"attributes":{"NORMAL":5,"POSITION":4},"indices":3,"material":1,"mode":4}]},{"primitives":[{"attributes":{"NORMAL":8,"POSITION":7},"indices":6,"material":2,"mode":4}]},{"primitives":[{"attributes":{"NORMAL":11,"POSITION":10},"indices":9,"material":0,"mode":4}]},{"primitives":[{"attributes":{"NORMAL":14,"POSITION":13},"indices":12,"material":0,"mode":4}]},{"primitives":[{"attributes":{"NORMAL":17,"POSITION":16},"indices":15,"material":3,"mode":4}]},{"primitives":[{"attributes":{"NORMAL":20,"POSITION":19},"indices":18,"material":0,"mode":4}]},{"primitives":[{"attributes":{"NORMAL":23,"POSITION":22},"indices":21,"material":0,"mode":4}]},{"primitives":[{"attributes":{"NORMAL":26,"POSITION":25},"indices":24,"material":3,"mode":4}]},{"primitives":[{"attributes":{"NORMAL":29,"POSITION":28},"indices":27,"material":3,"mode":4}]},{"primitives":[{"attributes":{"NORMAL":32,"POSITION":31},"indices":30,"material":3,"mode":4}]},{"primitives":[{"attributes":{"NORMAL":35,"POSITION":34},"indices":33,"material":3,"mode":4}]},{"primitives":[{"attributes":{"NORMAL":38,"POSITION":37},"indices":36,"material":3,"mode":4}]},{"primitives":[{"attributes":{"NORMAL":41,"POSITION":40},"indices":39,"material":3,"mode":4}]},{"primitives":[{"attributes":{"NORMAL":44,"POSITION":43},"indices":42,"material":3,"mode":4}]},{"primitives":[{"attributes":{"NORMAL":47,"POSITION":46},"indices":45,"material":3,"mode":4}]},{"primitives":[{"attributes":{"NORMAL":50,"POSITION":49},"indices":48,"material":3,"mode":4}]},{"primitives":[{"attributes":{"NORMAL":53,"POSITION":52},"indices":51,"material":3,"mode":4}]},{"primitives":[{"attributes":{"NORMAL":56,"POSITION":55},"indices":54,"material":3,"mode":4}]},{"primitives":[{"attributes":{"NORMAL":59,"POSITION":58},"indices":57,"material":3,"mode":4}]},{"primitives":[{"attributes":{"NORMAL":62,"POSITION":61},"indices":60,"material":3,"mode":4}]},{"primitives":[{"attributes":{"NORMAL":65,"POSITION":64},"indices":63,"material":0,"mode":4}]}],"nodes":[{"children":[1,2],"matrix":[1.0,0.0,0.0,0.0,0.0,4.4896593387466768e-11,-1.0,0.0,0.0,1.0,4.4896593387466768e-11,0.0,0.0,0.0,0.0,1.0]},{"name":"Camera-2","rotation":[-0.7071067690849304,0.0,0.0,-0.7071067690849304],"translation":[0.0,-5.053093433380127,0.4065000116825104]},{"name":"Robot_final v4","children":[3,6,7,8,9,10,11,12,13,14,15,16,17,18,19,20,21,22,23,24,25],"rotation":[-0.7071067690849304,0.0,0.0,-0.7071067690849304],"scale":[0.009999999776482582,0.009999999776482582,0.009999999776482582]},{"name":"Body10","children":[4,5],"rotation":[0.0,0.0,0.0,-1.0]},{"name":"Body10_EPX 150 - Air Baked (with Carbon M2 M3 L1 3D Printers)","mesh":0,"rotation":[0.0,0.0,0.0,-1.0]},{"name":"Body10_Opaque(255,255,255)","mesh":1,"rotation":[0.0,0.0,0.0,-1.0]},{"name":"Body2","mesh":2,"rotation":[0.0,0.0,0.0,-1.0]},{"name":"Body4","mesh":3,"rotation":[0.0,0.0,0.0,-1.0]},{"name":"Body5","mesh":4,"rotation":[0.0,0.0,0.0,-1.0]},{"name":"Body6","mesh":5,"rotation":[0.0,0.0,0.0,-1.0]},{"name":"Body7","mesh":6,"rotation":[0.0,0.0,0.0,-1.0]},{"name":"Body8","mesh":7,"rotation":[0.0,0.0,0.0,-1.0]},{"name":"Body9","mesh":8,"rotation":[0.0,0.0,0.0,-1.0]},{"name":"Body11","mesh":9,"rotation":[0.0,0.0,0.0,-1.0]},{"name":"Body12","mesh":10,"rotation":[0.0,0.0,0.0,-1.0]},{"name":"Body13","mesh":11,"rotation":[0.0,0.0,0.0,-1.0]},{"name":"Body14","mesh":12,"rotation":[0.0,0.0,0.0,-1.0]},{"name":"Body15","mesh":13,"rotation":[0.0,0.0,0.0,-1.0]},{"name":"Body16","mesh":14,"rotation":[0.0,0.0,0.0,-1.0]},{"name":"Body17","mesh":15,"rotation":[0.0,0.0,0.0,-1.0]},{"name":"Body18","mesh":16,"rotation":[0.0,0.0,0.0,-1.0]},{"name":"Body19","mesh":17,"rotation":[0.0,0.0,0.0,-1.0]},{"name":"Body20","mesh":18,"rotation":[0.0,0.0,0.0,-1.0]},{"name":"Body21","mesh":19,"rotation":[0.0,0.0,0.0,-1.0]},{"name":"Body22","mesh":20,"rotation":[0.0,0.0,0.0,-1.0]},{"name":"Body23","mesh":21,"rotation":[0.0,0.0,0.0,-1.0]}],"scene":0,"scenes":[{"nodes":[0]}]}