{"buffers":[{"uri":"Robot_final.bin","byteLength":225636}],"asset":{"version":"2.0","generator":"gltfpack 0.16"},"bufferViews":[{"buffer":0,"byteOffset":0,"byteLength":79824,"byteStride":12,"target":34962},{"buffer":0,"byteOffset":79824,"byteLength":79824,"byteStride":12,"target":34962},{"buffer":0,"byteOffset":159648,"byteLength":65988,"target":34963}],"accessors":[{"bufferView":0,"byteOffset":0,"componentType":5126,"count":1472,"type":"VEC3","min":[-26,15.6499901,-25.1499901],"max":[26,65.6500015,89.8395386]},{"bufferView":1,"byteOffset":0,"componentType":5126,"count":1472,"type":"VEC3"},{"bufferView":2,"byteOffset":0,"componentType":5123,"count":8220,"type":"SCALAR"},{"bufferView":0,"byteOffset":17664,"componentType":5126,"count":3200,"type":"VEC3","min":[-22.5,23.1499901,-27.5804005],"max":[22.5,63.1500015,90.1110229]},{"bufferView":1,"byteOffset":17664,"componentType":5126,"count":3200,"type":"VEC3"},{"bufferView":2,"byteOffset":16440,"componentType":5123,"count":16296,"type":"SCALAR"},{"bufferView":0,"byteOffset":56064,"componentType":5126,"count":1918,"type":"VEC3","min":[-25,15.6499901,-25.1499901],"max":[25,65.6500015,90.8395386]},{"bufferView":1,"byteOffset":56064,"componentType":5126,"count":1918,"type":"VEC3"},{"bufferView":2,"byteOffset":49032,"componentType":5123,"count":8310,"type":"SCALAR"},{"bufferView":0,"byteOffset":79080,"componentType":5126,"count":62,"type":"VEC3","min":[-5.24707985,39.4691811,82.5716476],"max":[5.24707985,40.2527695,85.7144775]},{"bufferView":1,"byteOffset":79080,"componentType":5126,"count":62,"type":"VEC3"},{"bufferView":2,"byteOffset":65652,"componentType":5123,"count":168,"type":"SCALAR"}],"materials":[{"pbrMetallicRoughness":{"baseColorFactor":[0.850980401,0.827450991,0.788235307,1],"metallicFactor":0},"doubleSided":true},{"pbrMetallicRoughness":{"baseColorFactor":[0.247058824,0.247058824,0.247058824,1],"metallicFactor":0},"doubleSided":true},{"pbrMetallicRoughness":{"baseColorFactor":[0.627451003,0.627451003,0.627451003,1],"metallicFactor":0},"doubleSided":true},{"pbrMetallicRoughness":{"metallicFactor":0},"doubleSided":true}],"meshes":[{"primitives":[{"attributes":{"POSITION":0,"NORMAL":1},"mode":4,"indices":2,"material":0}]},{"primitives":[{"attributes":{"POSITION":3,"NORMAL":4},"mode":4,"indices":5,"material":1}]},{"primitives":[{"attributes":{"POSITION":6,"NORMAL":7},"mode":4,"indices":8,"material":2}]},{"primitives":[{"attributes":{"POSITION":9,"NORMAL":10},"mode":4,"indices":11,"material":3}]}],"nodes":[{"mesh":0},{"mesh":1},{"mesh":2},{"mesh":3},{"children":[0]},{"children":[1]},{"children":[2]},{"children":[3]}],"scenes":[{"nodes":[4,5,6,7]}]}